<?xml version="1.0" encoding="UTF-8"?>
<svg version="1.1" xmlns="http://www.w3.org/2000/svg" width="100" height="100">
<path d="M0 0 C33 0 66 0 100 0 C100 33 100 66 100 100 C67 100 34 100 0 100 C0 67 0 34 0 0 Z " fill="#FC2942" transform="translate(0,0)"/>
<path d="M0 0 C4.71389272 2.4657285 8.4109752 6.57195039 10.77734375 11.3046875 C11.76334635 25.0328776 11.76334635 25.0328776 7.77734375 30.3046875 C3.93934286 34.13361511 0.80033674 37.17447057 -4.8581543 37.41821289 C-5.88980713 37.41297607 -6.92145996 37.40773926 -7.984375 37.40234375 C-9.10263672 37.39912109 -10.22089844 37.39589844 -11.37304688 37.39257812 C-12.54029297 37.38419922 -13.70753906 37.37582031 -14.91015625 37.3671875 C-16.08900391 37.36267578 -17.26785156 37.35816406 -18.48242188 37.35351562 C-21.39588414 37.34172023 -24.30924488 37.3252602 -27.22265625 37.3046875 C-27.26537725 35.63856845 -27.26329457 33.97085865 -27.22265625 32.3046875 C-25.56278679 30.64481804 -23.55102369 31.13699916 -21.26953125 31.09375 C-20.25761719 31.06539062 -19.24570312 31.03703125 -18.203125 31.0078125 C-16.06527095 30.95611107 -13.92722619 30.91172919 -11.7890625 30.875 C-10.77199219 30.8440625 -9.75492188 30.813125 -8.70703125 30.78125 C-7.77600586 30.76143066 -6.84498047 30.74161133 -5.88574219 30.72119141 C-2.71271856 30.22493377 -0.81918837 29.17042237 1.77734375 27.3046875 C4.86465072 22.98245775 5.19455566 19.52203764 4.4296875 14.42578125 C3.41025408 11.11109654 1.45749156 9.39651018 -1.22265625 7.3046875 C-4.94732474 5.44235325 -9.16760938 5.73337921 -13.22265625 6.3046875 C-16.34843768 7.9767622 -18.615468 10.090311 -20.22265625 13.3046875 C-20.56821123 18.38637843 -20.24667261 23.31260775 -19.22265625 28.3046875 C-20.87265625 28.6346875 -22.52265625 28.9646875 -24.22265625 29.3046875 C-27.95076211 23.71252871 -28.28354713 17.8770359 -27.22265625 11.3046875 C-25.70122908 8.07361536 -23.78056714 5.77357597 -21.22265625 3.3046875 C-20.37703125 2.4796875 -19.53140625 1.6546875 -18.66015625 0.8046875 C-12.82548953 -1.74134889 -6.10878198 -1.91100737 0 0 Z " fill="#FAF0F1" transform="translate(60.22265625,31.6953125)"/>
<path d="M0 0 C1.98 0.495 1.98 0.495 4 1 C4.02705729 2.77074917 4.04642195 4.54161711 4.0625 6.3125 C4.07410156 7.29863281 4.08570313 8.28476562 4.09765625 9.30078125 C4 12 4 12 3 15 C2.01 14.67 1.02 14.34 0 14 C-0.89214652 11.32356043 -1.13540211 9.74615622 -1.125 7 C-1.12757812 6.319375 -1.13015625 5.63875 -1.1328125 4.9375 C-1 3 -1 3 0 0 Z " fill="#FBFAF9" transform="translate(34,44)"/>
<path d="M0 0 C0.66 0 1.32 0 2 0 C2.13277344 0.77085938 2.26554687 1.54171875 2.40234375 2.3359375 C2.57894531 3.33882812 2.75554688 4.34171875 2.9375 5.375 C3.11152344 6.37273438 3.28554688 7.37046875 3.46484375 8.3984375 C3.87712062 10.96909656 3.87712062 10.96909656 5 13 C6.65 13 8.3 13 10 13 C10 13.66 10 14.32 10 15 C7.69 15 5.38 15 3 15 C0.74315457 9.63999211 -0.36263859 5.8022175 0 0 Z " fill="#EA455C" transform="translate(31,47)"/>
<path d="M0 0 C0.33 0 0.66 0 1 0 C3.48063781 9.41002278 3.48063781 9.41002278 2 14 C0.35 13.67 -1.3 13.34 -3 13 C-2.34 12.67 -1.68 12.34 -1 12 C-0.53101037 9.1840151 -0.53101037 9.1840151 -0.375 5.9375 C-0.30023438 4.83277344 -0.22546875 3.72804687 -0.1484375 2.58984375 C-0.09945312 1.73519531 -0.05046875 0.88054688 0 0 Z " fill="#F9DFE3" transform="translate(38,47)"/>
<path d="M0 0 C1.98 0.495 1.98 0.495 4 1 C3.67 2.32 3.34 3.64 3 5 C1.68 4.67 0.36 4.34 -1 4 C-0.67 2.68 -0.34 1.36 0 0 Z " fill="#F9D7DD" transform="translate(27,64)"/>
<path d="M0 0 C1.65 0 3.3 0 5 0 C5 0.99 5 1.98 5 3 C3.02 3 1.04 3 -1 3 C-0.67 2.01 -0.34 1.02 0 0 Z " fill="#F293A3" transform="translate(19,65)"/>
</svg>
