<svg display="block" role="presentation" viewBox="0 0 16 16" xmlns="http://www.w3.org/2000/svg"><path d="M 8 0 C 3.582 0 0 3.582 0 8 C 0 12.418 3.582 16 8 16 C 12.418 16 16 12.418 16 8 C 16 3.582 12.418 0 8 0 M 11.669 11.538 C 11.525 11.772 11.218 11.846 10.983 11.703 C 9.104 10.556 6.74 10.296 3.955 10.933 C 3.686 10.994 3.419 10.826 3.357 10.558 C 3.296 10.289 3.464 10.021 3.733 9.96 C 6.781 9.264 9.395 9.563 11.503 10.852 C 11.738 10.996 11.812 11.303 11.669 11.538 M 12.648 9.36 C 12.468 9.653 12.084 9.745 11.79 9.565 C 9.64 8.244 6.362 7.861 3.818 8.633 C 3.497 8.709 3.171 8.522 3.075 8.206 C 2.98 7.89 3.146 7.554 3.456 7.439 C 6.361 6.558 9.973 6.985 12.442 8.502 C 12.736 8.682 12.828 9.066 12.648 9.36 M 12.732 7.092 C 10.154 5.56 5.9 5.419 3.438 6.166 C 3.043 6.286 2.625 6.062 2.505 5.667 C 2.385 5.272 2.609 4.854 3.004 4.734 C 5.829 3.877 10.527 4.042 13.496 5.804 C 13.852 6.015 13.969 6.474 13.758 6.83 C 13.547 7.186 13.088 7.303 12.732 7.092" fill="rgb(143, 143, 143" height="16px" id="OcLL54AYR" width="16px"/></svg>